{"title":"babe MVK DVD rip","uid":9070801,"size":1702281892,"categoryP":"video","categoryS":"movies","magnet":"?xt=urn:btih:52e10e6ac8e0973b42b3578f977d9f03c5fa87fe&amp;dn=babe+MVK+DVD+rip&amp;tr=udp%3A%2F%2Ftracker.openbittorrent.com%3A80&amp;tr=udp%3A%2F%2Fopen.demonii.com%3A1337&amp;tr=udp%3A%2F%2Ftracker.coppersurfer.tk%3A6969&amp;tr=udp%3A%2F%2Fexodus.desync.com%3A6969","seeders":1,"leechers":1,"uploader":"batustita","files":-1,"time":1382200934,"description":"Enjoy this film in multilingual in MKV with all subtitles available.\nThanks for to share.\n\nGeneral\nUnique ID                                : 213637207666420152900956879063702974834 (0xA0B90790753BCD598A5616706B963172)\nComplete name                            : \n\nVideo\nID                                       : 1\nFormat                                   : AVC\nFormat/Info                              : Advanced Video Codec\nFormat profile                           : &lt;a class=&quot;__cf_email__&quot; href=&quot;/cdn-cgi/l/email-protection&quot; data-cfemail=&quot;eea6878986aea2ddc0de&quot;&gt;[email&amp;#160;protected]&lt;/a&gt;&lt;script cf-hash='f9e31' type=&quot;text/javascript&quot;&gt;\n/* &lt;![CDATA[ */!function(){try{var t=&quot;currentScript&quot;in document?document.currentScript:function(){for(var t=document.getElementsByTagName(&quot;script&quot;),e=t.length;e--;)if(t[e].getAttribute(&quot;cf-hash&quot;))return t[e]}();if(t&amp;&amp;t.previousSibling){var e,r,n,i,c=t.previousSibling,a=c.getAttribute(&quot;data-cfemail&quot;);if(a){for(e=&quot;&quot;,r=parseInt(a.substr(0,2),16),n=2;a.length-n;n+=2)i=parseInt(a.substr(n,2),16)^r,e+=String.fromCharCode(i);e=document.createTextNode(e),c.parentNode.replaceChild(e,c)}}}catch(u){}}();/* ]]&gt; */&lt;/script&gt;\nFormat settings, CABAC                   : Yes\nFormat settings, ReFrames                : 2 frames\nFormat settings, GOP                     : M=3, N=15\nCodec ID                                 : V_MPEG4/ISO/AVC\nDuration                                 : 1h 28mn\nBit rate mode                            : Variable\nBit rate                                 : 1 756 Kbps\nMaximum bit rate                         : 2 646 Kbps\nWidth                                    : 720 pixels\nHeight                                   : 392 pixels\nDisplay aspect ratio                     : 16:9\nFrame rate                               : 25.000 fps\nColor space                              : YUV\nChroma subsampling                       : 4:2:0\nBit depth                                : 8 bits\nScan type                                : Progressive\nBits/(Pixel*Frame)                       : 0.249\nStream size                              : 1.08 GiB (68%)\n\nAudio #1\nID                                       : 2\nFormat                                   : AC-3\nFormat/Info                              : Audio Coding 3\nMode extension                           : CM (complete main)\nCodec ID                                 : A_AC3\nDuration                                 : 1h 28mn\nBit rate mode                            : Constant\nBit rate                                 : 256 Kbps\nChannel(s)                               : 6 channels\nChannel positions                        : Front: L C R, Side: L R, LFE\nSampling rate                            : 48.0 KHz\nBit depth                                : 16 bits\nCompression mode                         : Lossy\nStream size                              : 161 MiB (10%)\nLanguage                                 : English\n\nAudio #2\nID                                       : 3\nFormat                                   : AC-3\nFormat/Info                              : Audio Coding 3\nMode extension                           : CM (complete main)\nCodec ID                                 : A_AC3\nDuration                                 : 1h 28mn\nBit rate mode                            : Constant\nBit rate                                 : 256 Kbps\nChannel(s)                               : 6 channels\nChannel positions                        : Front: L C R, Side: L R, LFE\nSampling rate                            : 48.0 KHz\nBit depth                                : 16 bits\nCompression mode                         : Lossy\nStream size                              : 161 MiB (10%)\nLanguage                                 : German\n\nAudio #3\nID                                       : 4\nFormat                                   : AC-3\nFormat/Info                              : Audio Coding 3\nMode extension                           : CM (complete main)\nCodec ID                                 : A_AC3\nDuration                                 : 1h 28mn\nBit rate mode                            : Constant\nBit rate                                 : 256 Kbps\nChannel(s)                               : 6 channels\nChannel positions                        : Front: L C R, Side: L R, LFE\nSampling rate                            : 48.0 KHz\nBit depth                                : 16 bits\nCompression mode                         : Lossy\nStream size                              : 161 MiB (10%)\nLanguage                                 : Spanish\n\nText #1\nID                                       : 5\nFormat                                   : VobSub\nCodec ID                                 : S_VOBSUB\nCodec ID/Info                            : The same subtitle format used on DVDs\nLanguage                                 : English\n\nText #2\nID                                       : 6\nFormat                                   : VobSub\nCodec ID                                 : S_VOBSUB\nCodec ID/Info                            : The same subtitle format used on DVDs\nLanguage                                 : Portuguese\n\nText #3\nID                                       : 7\nFormat                                   : VobSub\nCodec ID                                 : S_VOBSUB\nCodec ID/Info                            : The same subtitle format used on DVDs\nLanguage                                 : Danish\n\nText #4\nID                                       : 8\nFormat                                   : VobSub\nCodec ID                                 : S_VOBSUB\nCodec ID/Info                            : The same subtitle format used on DVDs\nLanguage                                 : Finnish\n\nText #5\nID                                       : 9\nFormat                                   : VobSub\nCodec ID                                 : S_VOBSUB\nCodec ID/Info                            : The same subtitle format used on DVDs\nLanguage                                 : Polish\n\nText #6\nID                                       : 10\nFormat                                   : VobSub\nCodec ID                                 : S_VOBSUB\nCodec ID/Info                            : The same subtitle format used on DVDs\nLanguage                                 : Dutch\n\nText #7\nID                                       : 11\nFormat                                   : VobSub\nCodec ID                                 : S_VOBSUB\nCodec ID/Info                            : The same subtitle format used on DVDs\nLanguage                                 : Swedish\n\nText #8\nID                                       : 12\nFormat                                   : VobSub\nCodec ID                                 : S_VOBSUB\nCodec ID/Info                            : The same subtitle format used on DVDs\nLanguage                                 : Norwegian\n\nText #9\nID                                       : 13\nFormat                                   : VobSub\nCodec ID                                 : S_VOBSUB\nCodec ID/Info                            : The same subtitle format used on DVDs\nLanguage                                 : Czech\n\nText #10\nID                                       : 14\nFormat                                   : VobSub\nCodec ID                                 : S_VOBSUB\nCodec ID/Info                            : The same subtitle format used on DVDs\nLanguage                                 : German\n\nText #11\nID                                       : 15\nFormat                                   : VobSub\nCodec ID                                 : S_VOBSUB\nCodec ID/Info                            : The same subtitle format used on DVDs\nLanguage                                 : French\n\nMenu\n00:00:00.000                             : en:(01)00:00:00:000\n00:06:44.000                             : en:(02)00:06:44:000\n00:08:59.000                             : en:(03)00:08:59:000\n00:14:00.000                             : en:(04)00:14:00:000\n00:24:16.000                             : en:(05)00:24:16:000\n00:26:19.000                             : en:(06)00:26:19:000\n00:31:34.000                             : en:(07)00:31:34:000\n00:35:38.000                             : en:(08)00:35:38:000\n00:45:14.000                             : en:(09)00:45:14:000\n00:49:38.000                             : en:(10)00:49:38:000\n00:56:17.000                             : en:(11)00:56:17:000\n01:00:07.000                             : en:(12)01:00:07:000\n01:07:24.000                             : en:(13)01:07:24:000\n01:10:02.000                             : en:(14)01:10:02:000\n01:16:55.000                             : en:(15)01:16:55:000\n01:23:07.000                             : en:(16)01:23:07:000\n01:28:01.000                             : en:(17)01:28:01:000\n\n","torrent":{"xt":"urn:btih:52e10e6ac8e0973b42b3578f977d9f03c5fa87fe","amp;dn":"babe+MVK+DVD+rip","amp;tr":["udp%3A%2F%2Ftracker.openbittorrent.com%3A80","udp%3A%2F%2Fopen.demonii.com%3A1337","udp%3A%2F%2Ftracker.coppersurfer.tk%3A6969","udp%3A%2F%2Fexodus.desync.com%3A6969"],"infoHash":"52e10e6ac8e0973b42b3578f977d9f03c5fa87fe","infoHashBuffer":{"type":"Buffer","data":[82,225,14,106,200,224,151,59,66,179,87,143,151,125,159,3,197,250,135,254]},"announce":[],"urlList":[]}}